<svg xmlns="http://www.w3.org/2000/svg" viewBox="0 0 133.93 47.99"><defs><style>.cls-1{fill:#588eeb;}.cls-2{fill:#222;}.cls-3{fill:#fff;}</style></defs><g id="Layer_2" data-name="Layer 2"><g id="Layer_1-2" data-name="Layer 1"><path class="cls-1" d="M23.05,13.82V19h-3V17H17.64v4.71H21l2.06,1v9.41H7.67L5.82,22.35l1.64-8.53h4.77V17H10.17L9.11,22.35,10.37,29h9.36v-4H16.49l-2.06-1.17V13.82Z"/><path class="cls-1" d="M25.81,13.82h3.5V32.17h-3.5Z"/><path class="cls-1" d="M52.73,11.58h-4.5v.06H45V9.4H41.93l-6.29,2.24V32.17H32.08V8.88L40.87,6.2h7.36v5.38l5.55-5,2.09,1.44Z"/><path class="cls-1" d="M45.93,27.58,45,32.17H38.37V29H42l1.18-5.86L38.37,22V13.82H52.25V32.17H48.64V29.26Zm2.65-2V17h-6.5v2.44l5.26,1.12-.73,3.74Z"/><path class="cls-1" d="M58.58,32.17H55V7.79L65.28,4.67h7.36v5.44H69.4V7.88H66.34l-7.76,2.76Z"/><path class="cls-1" d="M73.34,17H64.75V29.2h5.12V26l-.5-1.23H66.75V21.23h5.77l.82,3.5v7.44h-12V13.82h8.8V12.17H64.9L63.11,8.23l-.92-2.15h3.59L67,8.76h6.38Z"/><path class="cls-2" d="M77.06,19.86V17.43h1.57v2.43h2.43v1.58H78.63v2.42H77.06V21.44H74.63V19.86Z"/><path class="cls-2" d="M82,16.84V13.05a2.64,2.64,0,0,1,.51-1.58,4.59,4.59,0,0,1,1.2-1.17H85.1v1.26h-.29a1.46,1.46,0,0,0-1.07.44,1.44,1.44,0,0,0-.44,1.05v3.79a1.21,1.21,0,0,0,.37.9,1.25,1.25,0,0,0,.89.36H85v1.26h-.41a2.64,2.64,0,0,1-1-.19,2.53,2.53,0,0,1-1.34-1.34A2.5,2.5,0,0,1,82,16.84Z"/><path class="cls-2" d="M89.06,19.28H87.89a2.51,2.51,0,0,1-1.84-.66,2.43,2.43,0,0,1-.68-1.81V16a2.54,2.54,0,0,1,.86-2,2.38,2.38,0,0,1-.86-1.86v-.58h-.45V10.3h7.2v1.26h-.71v7.78H90.15V16.15a1.57,1.57,0,0,0-1.57-1.55H88A1.42,1.42,0,0,0,87,15a1.39,1.39,0,0,0-.38,1v.82a1.27,1.27,0,0,0,.31.93,1.37,1.37,0,0,0,1,.29h1.17Zm-1.21-5.92h.73a2.7,2.7,0,0,1,1.57.48V11.56H86.63v.58a1.21,1.21,0,0,0,1.22,1.22Z"/><path class="cls-2" d="M98.6,8.21l0,0a6.35,6.35,0,0,0-1.07-.8A2.66,2.66,0,0,0,96.07,7a2.16,2.16,0,0,0-1.21.29,1.93,1.93,0,0,0-.63.65,2,2,0,0,0-.24.67q0,.3,0,.36V10.3h.74v1.26H94v7.8H92.7v-7.8h-.77V10.3h.77V9a4,4,0,0,1,.14-.92A3.1,3.1,0,0,1,93.34,7a3,3,0,0,1,1-.88A3.29,3.29,0,0,1,96,5.76a4.52,4.52,0,0,1,2.07.5,4.57,4.57,0,0,1,.75.47c.22.17.42.33.59.49l0,0Z"/><path class="cls-2" d="M94.56,11.56V10.3h8.89v1.26H99v3.17h.17a2.47,2.47,0,0,0,.58-.07,1.68,1.68,0,0,0,.61-.25,2.75,2.75,0,0,0,.58-.52,2.91,2.91,0,0,0,.5-.86v-.33h1.26v3.45a3.35,3.35,0,0,1-.26,1.3,3.64,3.64,0,0,1-.72,1.08,3.45,3.45,0,0,1-1.07.73,3.1,3.1,0,0,1-1.32.28H98.4a3.23,3.23,0,0,1-1.31-.27A3.18,3.18,0,0,1,96,18.56a3.3,3.3,0,0,1-.72-1.08A3.23,3.23,0,0,1,95,16.17V13.36h1.26v2.81a2.12,2.12,0,0,0,.17.83,2.33,2.33,0,0,0,.46.68,2,2,0,0,0,.66.46,2.07,2.07,0,0,0,.82.16h.95a2.07,2.07,0,0,0,.82-.16,2,2,0,0,0,.67-.46,2.51,2.51,0,0,0,.45-.68,2,2,0,0,0,.17-.83v-1A3.6,3.6,0,0,1,99.3,16l-.57,0a2,2,0,0,1-.49-.09l-.46-.13V11.56Z"/><path class="cls-2" d="M88.64,31.26h-1a5.2,5.2,0,0,1-3.9-1.52,3.74,3.74,0,0,1-.66-1,5,5,0,0,1-.37-1,4.57,4.57,0,0,1-.17-.87c0-.26,0-.48,0-.65s0-.17,0-.23a.66.66,0,0,0,0-.11l0-.37,4.81-2v-.11H82V22.22h7.31v1.26h-.71ZM84.7,28.91a3.74,3.74,0,0,0,2.68,1.14V24.93l-3.61,1.5a3.44,3.44,0,0,0,0,.51,3.19,3.19,0,0,0,.14.62,4.33,4.33,0,0,0,.3.67A4,4,0,0,0,84.7,28.91Z"/><path class="cls-2" d="M88.93,22.22h.36a1,1,0,0,1,.86.35v-1.3h1.26v.95h1v1.26h-1v7.8H90.15V25.23a2.31,2.31,0,0,0-.3-1.33,1.06,1.06,0,0,0-.92-.42Z"/><path class="cls-2" d="M92.46,28.78V25a2.59,2.59,0,0,1,.46-1.51H91.86V22.22H95.5v1.26h-.29a1.43,1.43,0,0,0-1,.43A1.49,1.49,0,0,0,93.72,25v3.79A1.26,1.26,0,0,0,95,30h.42v1.25H95a2.5,2.5,0,0,1-1-.19,2.41,2.41,0,0,1-.8-.54,2.46,2.46,0,0,1-.54-.8A2.63,2.63,0,0,1,92.46,28.78Z"/><path class="cls-2" d="M95.25,23.48V22.22h7.45v1.26H102v7.78h-.93a7.15,7.15,0,0,1-2.49-.39,4.35,4.35,0,0,1-1.73-1.13,3.77,3.77,0,0,1-.51-.74,5.81,5.81,0,0,1-.29-.73,4.28,4.28,0,0,1-.13-.64,3.06,3.06,0,0,1,0-.47,1.08,1.08,0,0,1,0-.28l0-.38,2-.76a.31.31,0,0,0,.15-.18,1,1,0,0,0,.07-.44c0-.23,0-.37-.14-.42l-1.73-1.22ZM97.82,31l-.26,1.22a2.63,2.63,0,0,1-.7-.24,3.36,3.36,0,0,1-.54-.34,2.07,2.07,0,0,1-.37-.31.76.76,0,0,1-.15-.17l1-.8a1.41,1.41,0,0,0,.29.28A1.84,1.84,0,0,0,97.82,31Zm2.91-.88V23.48H98.4l.28.18a1.4,1.4,0,0,1,.51.64,2.38,2.38,0,0,1,.16.85,2.21,2.21,0,0,1-.29,1.12,1.48,1.48,0,0,1-.73.63l-1.2.48a2.23,2.23,0,0,0,.22.87,2.76,2.76,0,0,0,.64.84,3.85,3.85,0,0,0,1.1.65A4.81,4.81,0,0,0,100.73,30.07Z"/><path class="cls-2" d="M102.28,22.22h.37a1,1,0,0,1,.85.35v-1.3h1.26v.95h1.06v1.26h-1.06v7.8H103.5V25.23a2.31,2.31,0,0,0-.3-1.33,1,1,0,0,0-.92-.42Z"/><path class="cls-2" d="M105.33,23.48V22.22h9.76v1.26h-.71v7.78h-1.26V26.5a.81.81,0,0,0-.24-.59.83.83,0,0,0-.59-.25h-.13a.58.58,0,0,0-.57.57v1.58h-1.25V26.56a1,1,0,0,0-.49-.67,1.62,1.62,0,0,0-.83-.23h-.38a1.55,1.55,0,0,0-.61.13,1.92,1.92,0,0,0-.5.34,1.39,1.39,0,0,0-.34.49,1.54,1.54,0,0,0-.12.61v.82a1.56,1.56,0,0,0,.46,1.12,1.49,1.49,0,0,0,1.11.47h.86v1.23h-.86a2.82,2.82,0,0,1-1.09-.21,2.77,2.77,0,0,1-.89-.61,3,3,0,0,1-.62-.89,2.72,2.72,0,0,1-.22-1.11v-.82a2.7,2.7,0,0,1,.22-1.1,2.89,2.89,0,0,1,.62-.9,3.09,3.09,0,0,1,.91-.61,2.76,2.76,0,0,1,1.07-.21H109a2.59,2.59,0,0,1,1.77.62,1.74,1.74,0,0,1,1.37-.62h.13a1.84,1.84,0,0,1,.83.18V23.48Z"/><path class="cls-2" d="M121.58,20.12h0a6.48,6.48,0,0,0-1.08-.81,2.74,2.74,0,0,0-1.43-.36,2.2,2.2,0,0,0-1.22.29,2.15,2.15,0,0,0-.63.65,1.8,1.8,0,0,0-.23.66,3.52,3.52,0,0,0,0,.37v1.31h.75v1.26h-.75v7.8h-1.26v-7.8h-.76V22.22h.76V20.93a4,4,0,0,1,.14-.92,3.29,3.29,0,0,1,.5-1.08,3,3,0,0,1,1-.88,3.24,3.24,0,0,1,1.64-.37,4.4,4.4,0,0,1,1.12.14,4.81,4.81,0,0,1,1,.35,5,5,0,0,1,.76.48c.22.17.41.33.58.49l0,0Z"/><path class="cls-2" d="M117.55,23.48V22.22h10.57v1.26h-4.59a3.14,3.14,0,0,0,.49.37,3.17,3.17,0,0,0,.71.32,6.7,6.7,0,0,0,1.08.25,10.93,10.93,0,0,0,1.62.15V31.4h-1.26V25.75a6.4,6.4,0,0,1-2.41-.64,5.25,5.25,0,0,1-1.36-1l-.53.39a1.57,1.57,0,0,0-.57,1.22v.58a1,1,0,0,0,.3.72,1,1,0,0,0,.71.3h.42l.35,0a1.68,1.68,0,0,0,.46-.13,1.38,1.38,0,0,0,.4-.33,1,1,0,0,0,.17-.59V26h1.26v2a3.91,3.91,0,0,1-.23,1.33,3.11,3.11,0,0,1-.64,1.07,2.79,2.79,0,0,1-1,.71,2.91,2.91,0,0,1-1.23.26h-.93a3.23,3.23,0,0,1-1.31-.27,3.1,3.1,0,0,1-1.08-.72,3.47,3.47,0,0,1-.72-1.07A3.23,3.23,0,0,1,118,28V25.15h1.25V28a2.12,2.12,0,0,0,.17.83,2.08,2.08,0,0,0,.45.67,2.47,2.47,0,0,0,.68.46,2,2,0,0,0,.82.17h.93a1.54,1.54,0,0,0,1.29-.55,2.21,2.21,0,0,0,.49-1.27,3,3,0,0,1-1.36.29h-.42a2.29,2.29,0,0,1-.87-.17,2.52,2.52,0,0,1-.72-.48,2.14,2.14,0,0,1-.49-.72,2.21,2.21,0,0,1-.18-.89v-.58a2.8,2.8,0,0,1,1-2.19l.11-.07Z"/><path class="cls-1" d="M106.34,0a1,1,0,0,0-.58.43c-.08.16-.12.2-.25.23a1.63,1.63,0,0,0-1.13,1.22c0,.13,0,.88,0,2.32V6.35h-.63v.48a4.19,4.19,0,0,0,.49,2.09,4.59,4.59,0,0,0,2.7,2.25l.3.1,0,.62a2.11,2.11,0,0,0,.1.83,1,1,0,0,0,.71.61l.09,0,0,.64a6,6,0,0,0,.14,1,4.17,4.17,0,0,0,2.89,3c.11,0,.37.07.57.1a4.06,4.06,0,0,0,4.31-3.8c0-.23,0-1.66,0-3.65a21.19,21.19,0,0,1,.07-3.55,2.1,2.1,0,0,1,2-1.67,1.85,1.85,0,0,1,1.35.57,2.26,2.26,0,0,1,.42.54,2.63,2.63,0,0,1,.29,1.23l0,.48-.2.05A2.22,2.22,0,1,0,122.2,12a2.19,2.19,0,0,0-.1-3,2,2,0,0,0-1-.59l-.19-.05,0-.53a3.12,3.12,0,0,0-.23-1.22,2.84,2.84,0,0,0-1.69-1.6,3.09,3.09,0,0,0-1.32-.06,2.9,2.9,0,0,0-2,2l-.09.26,0,3.65c0,3.9,0,3.78-.2,4.36a4.39,4.39,0,0,1-.56,1,3.18,3.18,0,0,1-5.51-.57,3.22,3.22,0,0,1-.38-1.61l0-.63.11,0a1,1,0,0,0,.72-.61,2.11,2.11,0,0,0,.1-.83l0-.62.3-.1a4.59,4.59,0,0,0,2.7-2.25,4.19,4.19,0,0,0,.49-2.09V6.35h-.63v-2c0-1.17,0-2.15,0-2.3a1.46,1.46,0,0,0-.42-.86,1.46,1.46,0,0,0-.68-.44.44.44,0,0,1-.3-.25.94.94,0,0,0-1.63.06,1.16,1.16,0,0,0,0,.86,1,1,0,0,0,.49.44,1.17,1.17,0,0,0,.74,0,1.12,1.12,0,0,0,.44-.42c.05-.15.38,0,.59.33.1.14.11.2.14.54s0,1.22,0,2.23V6.35h-.62l0,.51a2.75,2.75,0,0,1-.27,1.22,2.77,2.77,0,0,1-3.39,1.27A2.6,2.6,0,0,1,106.15,8a2.77,2.77,0,0,1-.21-1.18V6.35h-1V2l.11-.2a1,1,0,0,1,.54-.45s.1.07.15.15a1,1,0,0,0,1,.41.94.94,0,0,0,.65-1.37A.93.93,0,0,0,106.34,0Zm.45.71a.3.3,0,0,1-.22.51.33.33,0,0,1-.19-.06.31.31,0,0,1,.06-.52A.28.28,0,0,1,106.79.74ZM110.5.67a.32.32,0,0,1,.18.35.3.3,0,0,1-.51.13c-.19-.18-.09-.45.2-.53C110.37.61,110.43.64,110.5.67Zm-5.19,6.48a3.2,3.2,0,0,0,3.18,3,3.38,3.38,0,0,0,2-.48A3.18,3.18,0,0,0,112,7.25L112,7h.64l0,.28A3.88,3.88,0,0,1,110,10.53a4.59,4.59,0,0,1-3.44-.18A4.47,4.47,0,0,1,105,9.1a3.77,3.77,0,0,1-.68-1.84l0-.28h1ZM121,9a1.77,1.77,0,0,1,.71.47,1.59,1.59,0,0,1-.53,2.47,1.13,1.13,0,0,1-.58.13,1.47,1.47,0,0,1-1.15-.4A1.58,1.58,0,0,1,121,9Zm-11.92,2.85c0,.47,0,.71-.16.81a1.54,1.54,0,0,1-1,0c-.11-.1-.16-.34-.16-.81v-.43h1.27Z"/><path class="cls-1" d="M120.34,9.55a.95.95,0,0,0,.13,1.86.88.88,0,0,0,.9-.47.92.92,0,0,0,.09-.72A1,1,0,0,0,120.34,9.55Zm.31.64a.3.3,0,0,1-.1.59.31.31,0,0,1-.08-.61l0,0Z"/><rect class="cls-1" y="35.61" width="133.93" height="12.39" rx="2.22"/><path class="cls-3" d="M1.66,43.81V40.6a2.26,2.26,0,0,1,.43-1.35,3.79,3.79,0,0,1,1-1H4.25v1.06H4a1.26,1.26,0,0,0-.91.37,1.22,1.22,0,0,0-.37.9v3.21a1,1,0,0,0,.31.76,1.06,1.06,0,0,0,.75.31h.36v1.06H3.79A2,2,0,0,1,3,45.78a2,2,0,0,1-.68-.46,2,2,0,0,1-.46-.68A2,2,0,0,1,1.66,43.81Z"/><path class="cls-3" d="M7.51,41.63a1.7,1.7,0,0,1-.61-.52,2,2,0,0,1-1.52.69H4.52V40.74h.86a.94.94,0,0,0,.94-1v-.45H4.05V38.27H9.74c.53,0,.8.35.8,1.06V40a1.79,1.79,0,0,1-.09.54,2,2,0,0,1-.28.55,1.85,1.85,0,0,1-.45.43,1.46,1.46,0,0,1-.6.24H8A1.26,1.26,0,0,1,7.51,41.63Zm2-1.6v-.7H7.61v.76a.6.6,0,0,0,.19.46.65.65,0,0,0,.45.19h.51a.69.69,0,0,0,.51-.21A.68.68,0,0,0,9.47,40Z"/><path class="cls-3" d="M14.22,37.35h1.06v.92h.6v1.06h-.6v6.6H14.22V42.68l-3.71,1.49-.4-1,1.25-.5v-.91c0-.12-.06-.18-.17-.18H9.6v-2a1.16,1.16,0,0,1,.11-.52,1.3,1.3,0,0,1,.29-.43,1.31,1.31,0,0,1,1-.4h1.78a2.47,2.47,0,0,1,1.47.49Zm-1.8,4.9,1.8-.71v-.83l-.44-.9a1.2,1.2,0,0,0-.44-.34,1.38,1.38,0,0,0-.59-.14H11a.29.29,0,0,0-.21.09.23.23,0,0,0-.1.2v.92h.68a1.06,1.06,0,0,1,1.08,1.08Z"/><path class="cls-3" d="M23.39,38.27v1.06h-.62v6.6H21.71V40.66a1.39,1.39,0,0,0-.34-.94,1.06,1.06,0,0,0-.82-.39h-.3a1,1,0,0,0-.8.39,1.34,1.34,0,0,0-.34.94V41a1.39,1.39,0,0,0,.34.95,1.07,1.07,0,0,0,.8.38h.67v1.07h-.67a2.06,2.06,0,0,1-1.71-.88,2.09,2.09,0,0,1-1.71.88h-.65V42.28h.65a1.06,1.06,0,0,0,.81-.38A1.39,1.39,0,0,0,18,41v-.29a1.34,1.34,0,0,0-.34-.94,1,1,0,0,0-.81-.39H15.61V38.27h1.22a2.06,2.06,0,0,1,1.71.88,2,2,0,0,1,1.71-.88h.3a2,2,0,0,1,1.16.35V37.35h1.06v.92Z"/><path class="cls-3" d="M23,38.27h.31a.84.84,0,0,1,.72.29v-1.1h1.07v.81H26v1.06h-.9v6.61H24.05V40.81a1.93,1.93,0,0,0-.25-1.12.89.89,0,0,0-.78-.36Z"/><path class="cls-3" d="M25.6,39.33V38.27h8.28v1.06h-.61v6.6H32.21v-4a.72.72,0,0,0-.71-.72h-.11a.48.48,0,0,0-.34.14.49.49,0,0,0-.14.34V43H29.84V41.94a.8.8,0,0,0-.4-.56,1.41,1.41,0,0,0-.71-.2h-.32a1.27,1.27,0,0,0-.52.11,1.37,1.37,0,0,0-.42.29,1.22,1.22,0,0,0-.29.42,1.25,1.25,0,0,0-.1.51v.7a1.3,1.3,0,0,0,.39.95,1.26,1.26,0,0,0,.94.39h.72V45.6h-.72a2.41,2.41,0,0,1-.93-.18,2.46,2.46,0,0,1-1.27-1.27,2.26,2.26,0,0,1-.2-.94v-.7a2.25,2.25,0,0,1,.2-.93,2.43,2.43,0,0,1,.52-.77,2.72,2.72,0,0,1,.77-.51,2.34,2.34,0,0,1,.91-.18h.32a2.23,2.23,0,0,1,1.5.52,1.49,1.49,0,0,1,1.16-.52h.11a1.61,1.61,0,0,1,.71.15v-.94Z"/><path class="cls-3" d="M43.25,39.33v7.06h-1v-.46h0v-.41h-.84a.29.29,0,0,0-.21.09.27.27,0,0,0-.1.22v.78h-2.1a1.58,1.58,0,0,1-.65-.14,1.49,1.49,0,0,1-.53-.35,1.76,1.76,0,0,1-.49-1.18v-.56h1v.56a.61.61,0,0,0,.19.44.6.6,0,0,0,.43.18H40a1.33,1.33,0,0,1,.47-.78,1.31,1.31,0,0,1,.86-.31h.84V42.68l-3.71,1.49-.39-1,1.25-.5v-.91a.17.17,0,0,0-.05-.13.16.16,0,0,0-.12,0H37.58v-2a1.37,1.37,0,0,1,.4-.95,1.49,1.49,0,0,1,.44-.3,1.3,1.3,0,0,1,.52-.1h1.79a2.44,2.44,0,0,1,1.46.49V37.35h1.06v.92h.62v1.06Zm-2.84,2.92,1.78-.71v-.83l-.44-.9a1,1,0,0,0-.43-.34,1.42,1.42,0,0,0-.59-.14H38.94a.26.26,0,0,0-.29.29v.92h.66a1.08,1.08,0,0,1,1.1,1.08Z"/><path class="cls-3" d="M43.5,38.27h.31a.84.84,0,0,1,.72.29v-1.1H45.6v.81h.89v1.06H45.6v6.61H44.53V40.81a1.93,1.93,0,0,0-.25-1.12.89.89,0,0,0-.78-.36Z"/><path class="cls-3" d="M51.3,38.27v1.06H46.09V38.27h3.62v-.58a.56.56,0,0,0-.58-.57H46.77V36.06h2.36a1.61,1.61,0,0,1,1.64,1.63v.58Zm-2.92,5.42a1.16,1.16,0,0,0,.87-.37,1.19,1.19,0,0,0,.36-.88v-.87a.94.94,0,0,0-.94-.94h-.79a.31.31,0,0,0-.32.32v1.47H46.49V41a1.34,1.34,0,0,1,.41-1,1.36,1.36,0,0,1,1-.41h.79a1.85,1.85,0,0,1,.78.17,2.12,2.12,0,0,1,.64.43,2.34,2.34,0,0,1,.43.63,1.85,1.85,0,0,1,.16.78v.87A2.28,2.28,0,0,1,49,44.66l.23.14c.22.14.45.29.67.45s.42.3.59.43.3.24.4.33l.17.15-.71.79-.15-.13-.37-.31-.53-.4a6.41,6.41,0,0,0-.61-.4L48,45.36l-.6-.28-.49-.2-.32-.13h-.11V43.69Z"/><path class="cls-3" d="M51.59,43.83V40.61A2.22,2.22,0,0,1,52,39.33h-.9V38.27h3.09v1.06h-.25a1.19,1.19,0,0,0-.89.37,1.23,1.23,0,0,0-.37.91v3.22a1,1,0,0,0,.3.74,1,1,0,0,0,.76.32h.36V46h-.36a2.09,2.09,0,0,1-.83-.17,2,2,0,0,1-.68-.45,2.07,2.07,0,0,1-.62-1.51Z"/><path class="cls-3" d="M54,39.33V38.27h7.52v1.06Zm6.93,3.77a2.7,2.7,0,0,1-.22,1.1,2.85,2.85,0,0,1-.61.91,2.73,2.73,0,0,1-.91.62,2.79,2.79,0,0,1-1.11.23h-.81a2.86,2.86,0,0,1-2-.85,2.88,2.88,0,0,1-.62-.91,2.7,2.7,0,0,1-.22-1.1V40.71h1.06V43.1a1.79,1.79,0,0,0,1.1,1.65,1.81,1.81,0,0,0,.69.14h.81a1.77,1.77,0,0,0,.69-.14,1.73,1.73,0,0,0,.57-.38,2.08,2.08,0,0,0,.38-.58,1.58,1.58,0,0,0,.15-.69v-.26a2.74,2.74,0,0,1-.9.38,3.78,3.78,0,0,1-.92.11,3.84,3.84,0,0,1-.88-.09l-.42-.09V40.91a1.19,1.19,0,0,1,.1-.51,1.15,1.15,0,0,1,.28-.4,1.13,1.13,0,0,1,.41-.27,1.17,1.17,0,0,1,.49-.11h.63a1,1,0,0,1,.71.29.94.94,0,0,1,.28.7v.54H58.59v-.27a.17.17,0,0,0-.19-.19H58a.2.2,0,0,0-.22.22v1.34l.13,0h.14a2.53,2.53,0,0,0,1-.23,1.48,1.48,0,0,0,.76-.9V41h1.06Z"/><path class="cls-3" d="M62.11,37.23V36.17h2.67a1.67,1.67,0,0,1,.67.13,2.22,2.22,0,0,1,.57.39,1.79,1.79,0,0,1,.38.56,1.72,1.72,0,0,1,.14.68v.34h.6v1.06H62.91v5.36l1.9-.63a1,1,0,0,0,.67-.93v-1.5a.54.54,0,0,0-.17-.39.53.53,0,0,0-.39-.16h-1V40h1a1.57,1.57,0,0,1,1.62,1.62v1.5a2,2,0,0,1-.37,1.19,2,2,0,0,1-1,.74l-2.22.74-1.08-.62V39.33h-.41V38.27h4v-.34a.72.72,0,0,0-.7-.7Z"/><path class="cls-3" d="M70.9,43.81V40.6a2.26,2.26,0,0,1,.43-1.35,3.79,3.79,0,0,1,1-1h1.14v1.06h-.25A1.28,1.28,0,0,0,72,40.6v3.21a1,1,0,0,0,.32.76,1.06,1.06,0,0,0,.75.31h.35v1.06H73a2.13,2.13,0,0,1-.84-.16,2.21,2.21,0,0,1-.68-.46,2.12,2.12,0,0,1-.45-.68A2,2,0,0,1,70.9,43.81Z"/><path class="cls-3" d="M79.45,39.33v7.06h-1v-.46h0v-.41h-.84a.29.29,0,0,0-.21.09.27.27,0,0,0-.1.22v.78h-2.1a1.7,1.7,0,0,1-1.67-1.67v-.56h1.06v.56a.6.6,0,0,0,.18.44.6.6,0,0,0,.43.18h1.08a1.38,1.38,0,0,1,.47-.78,1.31,1.31,0,0,1,.86-.31h.84V42.68l-3.71,1.49-.39-1,1.25-.5v-.91a.17.17,0,0,0-.05-.13.15.15,0,0,0-.12,0H73.78v-2a1.31,1.31,0,0,1,.11-.52,1.19,1.19,0,0,1,.3-.43,1.33,1.33,0,0,1,.43-.3,1.3,1.3,0,0,1,.52-.1h1.79a2.44,2.44,0,0,1,1.46.49V37.35h1.06v.92h.62v1.06Zm-2.84,2.92,1.78-.71v-.83l-.44-.9a1,1,0,0,0-.43-.34,1.38,1.38,0,0,0-.59-.14H75.14a.26.26,0,0,0-.29.29v.92h.66a1.08,1.08,0,0,1,1.1,1.08Z"/><path class="cls-3" d="M79.7,38.27H80a.84.84,0,0,1,.72.29v-1.1H81.8v.81h.9v1.06h-.9v6.61H80.73V40.81a1.93,1.93,0,0,0-.25-1.12.89.89,0,0,0-.78-.36Z"/><path class="cls-3" d="M82.74,42.67h1.08V44.3a.65.65,0,0,0,.64.64h1.32v-.13a1.4,1.4,0,0,1,1.39-1.39h.76v-1.8a3.22,3.22,0,0,0-.09-.72,4.29,4.29,0,0,0-.25-.74,2.31,2.31,0,0,0-.36-.57.62.62,0,0,0-.46-.23h-1a1.13,1.13,0,0,0-1.09.84l.15,0h.43a1.76,1.76,0,0,1,1.22.51,1.62,1.62,0,0,1,.37.55,1.52,1.52,0,0,1,.14.67V42a1.91,1.91,0,0,1-.14.71,1.87,1.87,0,0,1-.4.59,2,2,0,0,1-.58.39,1.79,1.79,0,0,1-.72.15h-.84V42.79h.84a.74.74,0,0,0,.55-.22.76.76,0,0,0,.23-.55v-.11a.65.65,0,0,0-.2-.46.59.59,0,0,0-.47-.2h-.43c-.12,0-.18.06-.18.2v.46H83.54V40.49a2.06,2.06,0,0,1,.18-.85,2.29,2.29,0,0,1,.48-.7,2.42,2.42,0,0,1,.7-.48,2.06,2.06,0,0,1,.85-.18h1a1.55,1.55,0,0,1,1.16.49V37.38H89v.89h.61v1.09H89V46H87.93V44.5h-.76a.34.34,0,0,0-.22.1.26.26,0,0,0-.1.21V46H84.46a1.67,1.67,0,0,1-.67-.14,1.78,1.78,0,0,1-.91-.91,1.67,1.67,0,0,1-.14-.67Z"/><path class="cls-3" d="M89.23,38.27h.31a.84.84,0,0,1,.72.29v-1.1h1.07v.81h.89v1.06h-.89v6.61H90.26V40.81A1.93,1.93,0,0,0,90,39.69a.89.89,0,0,0-.78-.36Z"/><path class="cls-3" d="M95.33,45.88h-1a2.14,2.14,0,0,1-1.56-.56,2.08,2.08,0,0,1-.57-1.54v-.7a2.15,2.15,0,0,1,.72-1.68,2,2,0,0,1-.72-1.57v-.5h-.39V38.27h6.1v1.06h-.6v6.6H96.25V43.22a1.22,1.22,0,0,0-.38-.92,1.28,1.28,0,0,0-.94-.39h-.47a1.17,1.17,0,0,0-.86.32,1.15,1.15,0,0,0-.33.85v.7a1,1,0,0,0,.27.79,1.14,1.14,0,0,0,.8.24h1Zm-1-5h.62a2.26,2.26,0,0,1,1.32.4V39.33h-3v.5a1,1,0,0,0,.3.73A1,1,0,0,0,94.31,40.86Z"/><path class="cls-3" d="M105,41.23v1.13h-3.24V41.23Z"/><path class="cls-3" d="M112.66,42.53a1.07,1.07,0,0,0,.32-.76v-.62a.79.79,0,0,0-.52-.74l-1.76-.63a1.42,1.42,0,0,1-1-1.34v-.08h1.07v.08a.35.35,0,0,0,.23.33l1.76.64a1.83,1.83,0,0,1,.9.69,1.71,1.71,0,0,1,.34,1v.62a2.08,2.08,0,0,1-.17.82,2.13,2.13,0,0,1-.47.67,2.48,2.48,0,0,1-.71.46,2.2,2.2,0,0,1-.86.17l-.59,0,2.86,2-.6.88-4.13-2.89V42.71l2.5.11A1.1,1.1,0,0,0,112.66,42.53Z"/><path class="cls-3" d="M120.66,41.26v1.82a2.39,2.39,0,0,1-.2,1,2.35,2.35,0,0,1-.53.78,2.63,2.63,0,0,1-.78.53,2.3,2.3,0,0,1-1,.19h-.57a2.38,2.38,0,0,1-1-.19,2.67,2.67,0,0,1-.79-.53,2.5,2.5,0,0,1-.53-.78,2.38,2.38,0,0,1-.19-1V41.26a2.34,2.34,0,0,1,.2-.95,2.76,2.76,0,0,1,.53-.78,2.5,2.5,0,0,1,.78-.53,2.38,2.38,0,0,1,1-.19h.57a2.18,2.18,0,0,1,.94.2,2.5,2.5,0,0,1,.78.53,2.53,2.53,0,0,1,.54.78A2.33,2.33,0,0,1,120.66,41.26Zm-1.07,1.82V41.26a1.31,1.31,0,0,0-.41-1,1.34,1.34,0,0,0-1-.41h-.57a1.42,1.42,0,0,0-.55.11,1.37,1.37,0,0,0-.45.3,1.77,1.77,0,0,0-.3.45,1.4,1.4,0,0,0-.11.53v1.82a1.41,1.41,0,0,0,.11.54,1.55,1.55,0,0,0,.3.44,1.57,1.57,0,0,0,.45.31,1.42,1.42,0,0,0,.55.1h.57a1.31,1.31,0,0,0,1-.41A1.29,1.29,0,0,0,119.59,43.08Z"/><path class="cls-3" d="M124.92,42.53a1,1,0,0,0,.32-.76v-.62a.79.79,0,0,0-.52-.74L123,39.78a1.41,1.41,0,0,1-.94-1.34v-.08h1.06v.08a.35.35,0,0,0,.23.33l1.76.64a1.81,1.81,0,0,1,.91.69,1.77,1.77,0,0,1,.33,1v.62a2.08,2.08,0,0,1-.17.82,2,2,0,0,1-.47.67,2.57,2.57,0,0,1-.7.46,2.29,2.29,0,0,1-.87.17l-.58,0,2.85,2-.6.88-4.12-2.89V42.71l2.5.11A1.08,1.08,0,0,0,124.92,42.53Z"/><path class="cls-3" d="M129,43.15h-.45c-.05,0-.1.08-.17.19a.68.68,0,0,0-.09.33,1,1,0,0,0,.26.67.79.79,0,0,0,.59.3h.94a2.48,2.48,0,0,0,.54-.06,1.3,1.3,0,0,0,.51-.22,1.31,1.31,0,0,0,.36-.44,1.69,1.69,0,0,0,.14-.73,2.57,2.57,0,0,0-.13-.89,1.61,1.61,0,0,0-.4-.66,2.75,2.75,0,0,0-.74-.52,9.57,9.57,0,0,0-1.14-.46,3.89,3.89,0,0,1-.94-.5,2.75,2.75,0,0,1-.54-.54,1.54,1.54,0,0,1-.25-.52,1.91,1.91,0,0,1-.06-.43c0-.17,0-.27,0-.3l.16.05.34.09a2.47,2.47,0,0,1,.35.1l.17,0a.19.19,0,0,0,0,.08.71.71,0,0,0,.24.42,2.9,2.9,0,0,0,.87.51,9.53,9.53,0,0,1,1.21.48,3.92,3.92,0,0,1,1,.67,2.88,2.88,0,0,1,.66,1,3.46,3.46,0,0,1,.24,1.35,2.54,2.54,0,0,1-.71,1.92,2.68,2.68,0,0,1-1.88.66h-1a1.72,1.72,0,0,1-.75-.17,1.89,1.89,0,0,1-.6-.45,2.06,2.06,0,0,1-.41-.65,2,2,0,0,1-.15-.77,1.67,1.67,0,0,1,.09-.52,1.72,1.72,0,0,1,.27-.52,1.77,1.77,0,0,1,.42-.4,1,1,0,0,1,.54-.15H129Z"/></g></g></svg>